<svg version="1.1" id="Layer_1" xmlns="http://www.w3.org/2000/svg" xmlns:xlink="http://www.w3.org/1999/xlink" x="0px" y="0px"
	 width="100%" viewBox="0 0 612 612" enable-background="new 0 0 612 612" xml:space="preserve">
<path fill="#000000" opacity="1.000000" stroke="none" 
	d="
M348.000000,613.000000 
	C232.000015,613.000000 116.500038,613.000000 1.000046,613.000000 
	C1.000031,409.000061 1.000031,205.000107 1.000015,1.000129 
	C204.999893,1.000086 408.999786,1.000086 612.999756,1.000043 
	C612.999878,204.999878 612.999878,408.999756 612.999939,612.999817 
	C524.833313,613.000000 436.666656,613.000000 348.000000,613.000000 
M341.031830,61.988689 
	C341.031830,61.988689 341.234344,62.010178 341.024139,61.361786 
	C340.699066,60.836510 340.374023,60.311230 340.078278,59.364014 
	C340.078278,59.364014 339.911804,58.975185 340.009399,58.236691 
	C338.377167,55.427071 336.744934,52.617455 335.106018,49.903526 
	C335.106018,49.903526 335.201569,49.895020 335.031128,49.204342 
	C334.373383,48.718391 333.715668,48.232445 332.929382,47.219257 
	C332.370605,46.794670 331.811859,46.370083 330.818420,45.274677 
	C324.613281,43.837879 318.469635,41.882511 312.182526,41.137444 
	C307.608215,40.595352 302.744904,41.199966 298.209808,42.198544 
	C296.140381,42.654198 294.551758,45.293522 292.218567,47.071087 
	C291.793213,47.628716 291.367859,48.186340 290.267059,48.968658 
	C289.777802,49.612419 289.288544,50.256184 288.896790,50.908260 
	C288.896790,50.908260 288.890503,50.810627 288.277039,51.152508 
	C287.452637,52.740261 286.628265,54.328014 285.906281,55.928051 
	C285.906281,55.928051 285.906250,55.824936 285.265472,56.165031 
	C283.096588,60.759735 280.927704,65.354439 278.271881,70.030121 
	C277.983887,70.239243 277.834229,70.521675 277.147156,71.324043 
	C277.459167,75.876030 277.771149,80.428009 277.913177,85.777328 
	C277.969116,86.858292 278.025055,87.939255 277.989319,89.730400 
	C278.644104,90.890678 279.298859,92.050957 279.924774,93.635406 
	C279.924774,93.635406 280.090424,94.026962 280.062317,94.579529 
	C280.365570,94.772339 280.668823,94.965157 280.954529,95.896767 
	C281.277893,96.760773 281.522308,97.664871 281.937500,98.482224 
	C284.554749,103.634575 287.209900,108.767677 289.258179,113.985893 
	C288.834503,114.293938 288.410797,114.601982 287.175568,115.014694 
	C276.392334,117.430992 266.144379,121.308281 256.661804,126.951599 
	C254.418747,128.286499 252.963181,130.944595 250.853485,133.620712 
	C248.815033,136.305740 245.806656,138.709305 244.929642,141.731400 
	C242.758286,149.213715 241.465088,156.960556 240.004791,164.636429 
	C238.861862,170.644119 238.099426,176.723694 236.986496,182.737732 
	C235.061447,193.140244 232.995712,203.516724 230.287933,214.276123 
	C226.155334,227.552063 227.266968,240.911102 230.647141,253.998398 
	C233.259186,264.111664 234.070251,273.631592 229.010315,283.241608 
	C227.119354,286.832886 226.377426,291.029144 224.966614,295.480011 
	C224.989166,295.661896 225.011719,295.843781 225.026596,296.584839 
	C225.330811,296.776978 225.635010,296.969086 226.237411,297.764435 
	C228.466278,301.303375 230.628876,304.886414 232.943085,308.368622 
	C235.164246,311.710907 237.542572,314.948730 239.918152,318.671692 
	C239.918152,318.671692 240.059814,319.092773 240.025818,319.688660 
	C240.337219,320.128082 240.648605,320.567535 240.994370,321.872742 
	C239.658401,334.314026 238.288467,346.751831 236.996796,359.197693 
	C235.891739,369.845459 234.929764,380.508148 233.806992,391.153961 
	C232.598190,402.615265 231.240829,414.060822 230.015396,425.520447 
	C229.208725,433.063995 228.580795,440.626740 227.763000,448.168976 
	C226.913086,456.007294 225.846130,463.822479 225.030014,471.664001 
	C224.177383,479.856415 223.618195,488.079742 222.735596,496.268555 
	C221.591110,506.886902 220.486206,517.518616 218.932693,528.081116 
	C217.435776,538.258972 215.402679,548.358459 213.573761,558.486633 
	C213.212234,560.488586 212.707840,562.464783 212.269333,564.452820 
	C215.160263,564.909363 218.056549,565.685181 220.938995,565.636780 
	C221.858826,565.621399 223.481827,563.445129 223.524902,562.213562 
	C223.870148,552.346252 223.573593,542.448669 224.143417,532.599121 
	C224.734894,522.375671 226.063904,512.194458 227.091858,501.996918 
	C228.103683,491.959320 229.053162,481.914276 230.191406,471.890839 
	C231.701904,458.589600 233.506485,445.320831 234.934372,432.011292 
	C236.768234,414.917877 238.268188,397.788818 240.072083,380.691986 
	C241.614578,366.072723 243.194107,351.452057 245.139160,336.882996 
	C245.981644,330.572601 247.783676,324.390289 249.750854,317.798492 
	C251.853561,314.584869 253.956253,311.371216 256.667603,307.921417 
	C256.748352,307.303894 256.829102,306.686401 257.026398,305.501862 
	C256.987823,305.312805 256.949219,305.123779 256.993378,304.011719 
	C256.806793,298.954376 257.659698,293.569916 256.194733,288.914886 
	C253.886276,281.579590 251.348694,274.473938 251.995285,266.645325 
	C252.343369,262.430756 252.622986,258.210510 253.654755,253.597977 
	C254.072739,242.742874 254.490707,231.887787 255.180008,220.384247 
	C258.077759,216.592255 260.975494,212.800262 263.873260,209.008270 
	C264.325012,209.268097 264.776794,209.527939 265.228577,209.787766 
	C265.228577,215.550430 265.228577,221.313095 265.075348,227.992493 
	C264.703857,236.218719 264.560272,244.463303 263.899841,252.666275 
	C263.170685,261.722412 261.730286,270.721863 261.024994,279.779175 
	C259.881165,294.467102 259.084015,309.181976 258.099915,324.667389 
	C259.461334,329.128632 260.822784,333.589874 262.044250,338.963928 
	C262.060272,342.784088 261.082306,346.948212 262.264709,350.364716 
	C267.331726,365.005554 267.008392,380.378845 268.802338,395.411469 
	C270.961853,413.507599 271.577881,431.785461 272.989166,449.974792 
	C273.444824,455.847656 274.207520,461.702209 275.000305,467.541962 
	C275.900757,474.174255 277.282135,480.752289 277.931671,487.404968 
	C278.858856,496.900818 279.394348,506.438171 279.946411,515.966553 
	C280.806183,530.804443 281.717377,545.625305 285.645264,560.556091 
	C283.318451,562.354004 281.237091,564.736450 278.617279,565.836548 
	C271.722717,568.731628 270.681580,569.936584 271.017639,577.787048 
	C271.198822,582.019165 273.872467,584.516174 277.702637,584.446594 
	C287.492310,584.268799 297.278473,583.593689 307.051117,582.905518 
	C312.563690,582.517334 318.046753,581.710022 323.907898,581.050415 
	C324.276489,573.109497 324.076813,565.697205 319.741791,558.732910 
	C320.517090,551.241577 321.802917,543.759460 321.939606,536.256531 
	C322.114105,526.677734 321.523346,517.072388 320.951111,507.497070 
	C320.560150,500.955139 319.638519,494.444885 318.951660,487.920715 
	C317.693787,475.973297 314.865631,464.360413 315.670227,451.989960 
	C316.877228,433.433258 315.900818,414.734528 316.009918,395.215302 
	C316.077850,387.646515 317.904877,380.619568 322.391174,374.289154 
	C323.419159,378.059662 323.804596,381.762299 324.265991,385.455505 
	C326.472076,403.114990 331.856110,420.259125 330.237000,438.556854 
	C328.900543,453.659821 330.374237,468.989746 329.882141,484.195770 
	C329.455841,497.368256 328.038666,510.509644 327.009766,523.660889 
	C326.792084,526.443542 326.284424,529.202881 326.040192,531.984314 
	C325.533386,537.755493 330.492432,539.457336 333.911743,543.208618 
	C333.824432,549.332458 333.621246,555.403687 337.918152,560.634949 
	C338.706299,561.594482 338.293793,564.058472 337.704132,565.536072 
	C335.784943,570.345276 336.983246,573.459961 341.668579,573.809814 
	C351.512329,574.544922 361.380371,574.954651 371.950531,575.537170 
	C371.805237,572.326538 372.222900,569.576843 371.477325,567.190613 
	C368.526062,557.745178 365.210571,548.413452 362.104492,538.234375 
	C364.069305,525.923340 366.770966,513.674316 367.814758,501.285706 
	C369.158142,485.341125 371.209778,469.641449 374.864594,454.022430 
	C378.373871,439.025238 380.472595,423.693451 383.055878,408.485718 
	C384.842133,397.970154 386.979889,387.466766 387.913971,376.865723 
	C389.146271,362.880066 389.323059,348.802582 390.026245,334.768219 
	C390.173553,331.827698 390.636688,328.903046 391.065704,325.145020 
	C391.781586,321.640656 391.361176,317.040955 393.456970,314.866791 
	C397.448364,310.726166 396.741821,306.256287 397.053833,301.553497 
	C397.355988,296.999084 398.230103,292.482574 398.976318,287.138824 
	C402.476776,273.328156 405.282410,259.437225 403.972565,244.142838 
	C403.699219,237.179245 403.425873,230.215668 403.782196,222.869049 
	C406.077606,221.855392 408.285339,220.408936 410.687561,219.922180 
	C415.086914,219.030731 415.773529,216.026184 414.948639,212.671509 
	C413.233612,205.696259 411.050537,198.835464 409.035126,191.934845 
	C405.713593,180.562149 402.479889,169.162170 398.999237,157.838196 
	C396.901093,151.011948 395.209412,143.880814 391.898834,137.649765 
	C387.061249,128.544647 377.654358,124.467506 368.789825,119.251251 
	C363.638245,115.929901 357.934326,115.563828 351.404083,115.836723 
	C349.909760,113.209984 348.415436,110.583244 347.001740,107.029861 
	C347.068237,101.712921 347.134735,96.395981 347.082703,91.069099 
	C347.082703,91.069099 347.084076,91.188057 347.660187,91.032692 
	C348.282959,90.634338 348.905731,90.235977 349.796844,89.793785 
	C349.796844,89.793785 349.871643,89.532379 350.402618,89.070534 
	C352.857483,84.100723 351.951569,81.011826 347.094299,77.910545 
	C347.094299,77.910545 347.194519,77.902718 347.026978,77.162430 
	C345.369751,72.697601 343.712524,68.232780 342.085632,63.353508 
	C342.085632,63.353508 341.917450,62.973499 341.940033,62.422169 
	C341.645569,62.210297 341.351135,61.998428 341.031830,61.988689 
z"/>
<path fill="#BBCCDF" opacity="1.000000" stroke="none" 
	d="
M258.140503,323.885498 
	C259.084015,309.181976 259.881165,294.467102 261.024994,279.779175 
	C261.730286,270.721863 263.170685,261.722412 263.899841,252.666275 
	C264.560272,244.463303 264.703857,236.218719 265.505127,227.462646 
	C266.530426,225.901993 267.861725,224.607208 267.601990,223.883286 
	C265.917175,219.187408 267.406982,215.183014 269.362671,210.968918 
	C271.315674,206.760544 272.701813,202.277344 274.172943,197.860153 
	C275.856262,192.805786 275.156799,191.508850 269.916840,192.202057 
	C264.504211,192.918106 259.245270,194.796066 253.384872,196.303116 
	C253.030472,195.176056 252.050034,193.485718 252.043488,191.791611 
	C252.014175,184.213440 252.314285,176.634735 252.395111,169.055161 
	C252.467987,162.219742 252.410507,155.382935 252.410507,148.546738 
	C246.325928,154.937485 243.813797,162.608322 244.446381,170.763779 
	C245.162567,179.997131 247.021973,189.153717 248.631790,198.300125 
	C249.302078,202.108521 248.550461,205.192291 245.767731,207.821365 
	C242.516708,210.892883 239.274658,213.973907 235.754639,217.031021 
	C235.297546,217.003677 235.114532,216.996124 234.751404,216.717865 
	C233.377197,215.599472 232.183090,214.751801 230.988983,213.904114 
	C232.995712,203.516724 235.061447,193.140244 236.986496,182.737732 
	C238.099426,176.723694 238.861862,170.644119 240.004791,164.636429 
	C241.465088,156.960556 242.758286,149.213715 244.929642,141.731400 
	C245.806656,138.709305 248.815033,136.305740 251.329132,133.245239 
	C258.418213,129.211121 264.929260,125.348511 271.677887,121.959076 
	C276.961609,119.305389 282.539795,117.237946 287.987122,114.910019 
	C288.410797,114.601982 288.834503,114.293938 289.856110,114.098236 
	C291.041565,114.879639 291.629089,115.548698 292.297058,116.526031 
	C292.540161,117.890266 292.702820,118.946236 292.756165,120.115257 
	C292.535370,120.567802 292.645081,120.821411 293.086792,121.347382 
	C294.953857,129.209366 298.652374,135.369141 304.739166,140.329849 
	C308.287109,143.221405 311.327240,146.880142 314.044250,150.596939 
	C315.886536,153.117142 317.476074,153.206573 320.124573,151.807526 
	C330.322571,146.278946 340.420532,141.032471 345.713409,129.968124 
	C344.685516,134.875107 343.174103,139.490845 341.534943,144.060730 
	C341.379120,144.495071 340.416809,144.629669 339.839996,144.925064 
	C333.848053,147.993683 327.637054,150.713089 321.951324,154.271500 
	C318.553802,156.397812 315.980133,159.840561 312.783295,162.936432 
	C321.733673,160.379684 329.807800,158.136307 337.841888,155.757675 
	C343.916107,153.959335 344.676666,152.683456 344.107849,146.351776 
	C344.049774,145.705215 344.091583,144.976471 344.334076,144.387589 
	C346.478485,139.179535 348.725769,134.013596 350.846100,128.795959 
	C352.264679,125.305214 353.526276,121.750664 355.302185,118.148933 
	C360.118805,118.718842 364.491333,119.364471 368.863861,120.010101 
	C377.654358,124.467506 387.061249,128.544647 391.898834,137.649765 
	C395.209412,143.880814 396.901093,151.011948 398.999237,157.838196 
	C402.479889,169.162170 405.713593,180.562149 409.035126,191.934845 
	C411.050537,198.835464 413.233612,205.696259 414.948639,212.671509 
	C415.773529,216.026184 415.086914,219.030731 410.687561,219.922180 
	C408.285339,220.408936 406.077606,221.855392 403.040253,223.058960 
	C399.192474,223.864365 396.086639,224.479858 392.969238,224.639496 
	C392.957642,200.932007 392.957642,177.680359 392.957642,154.428711 
	C392.496490,154.412964 392.035339,154.397217 391.574219,154.381454 
	C390.050323,158.508789 388.526459,162.636108 387.002563,166.763443 
	C386.605713,166.655167 386.208862,166.546890 385.812042,166.438614 
	C384.593842,159.721695 383.375641,153.004776 382.157440,146.287857 
	C381.272034,153.277023 381.969513,160.147781 381.072113,166.803497 
	C380.207672,173.215149 381.231049,180.704269 373.851685,186.455582 
	C374.139862,182.286270 374.337402,179.428543 374.542419,176.462631 
	C368.358063,179.746536 367.340546,183.568008 370.904785,188.573181 
	C372.528809,190.853790 373.766144,193.409744 375.178894,195.840820 
	C369.231964,193.030624 366.399475,186.480667 358.740295,185.259552 
	C358.528503,187.763641 357.904999,189.905090 358.280334,191.854172 
	C358.936859,195.263458 360.273621,198.536102 361.206085,201.899094 
	C363.076172,208.643814 361.952728,210.444885 355.089966,212.069443 
	C354.542938,212.198944 354.056305,212.583557 353.903015,212.662796 
	C358.061554,218.622406 359.732941,225.899429 365.560333,230.408218 
	C366.938507,231.474564 367.802399,233.290329 368.698120,234.876968 
	C370.313232,237.737869 370.170868,239.597305 366.696045,241.594650 
	C363.294342,243.549973 360.158386,246.710358 358.077820,250.068039 
	C353.626740,257.251526 349.809418,264.841339 345.970886,272.385986 
	C343.355804,277.525940 343.344757,282.554840 345.877686,288.145844 
	C348.146118,293.152985 349.729187,298.905945 349.831482,304.363312 
	C350.012451,314.017700 354.646362,319.901428 362.785522,323.867340 
	C365.017059,324.954681 367.223755,326.092865 369.328339,327.549561 
	C365.778503,331.937012 361.120361,332.834991 356.201965,332.658966 
	C332.187744,331.799347 308.175964,330.868988 284.165985,329.898132 
	C282.206177,329.818909 280.266266,329.247955 278.150848,328.676086 
	C277.669586,328.247162 277.354553,328.047638 276.953156,327.643341 
	C276.691345,327.182251 276.453705,327.013550 276.047852,326.623169 
	C274.972473,325.515076 274.003082,324.716217 273.029541,323.952087 
	C273.025452,323.986786 273.088531,323.956726 273.090057,323.555969 
	C271.812988,322.461090 270.421204,321.031586 269.276520,321.207764 
	C265.516235,321.786560 261.845612,322.947968 258.140503,323.885498 
M280.491394,137.444992 
	C277.828674,138.865082 277.568359,139.886444 280.028900,140.868576 
	C282.872894,142.003738 286.101105,142.136292 289.104126,142.926117 
	C291.385193,143.526047 294.738708,143.826660 295.601196,145.379211 
	C299.087158,151.654266 303.810150,151.366745 310.456940,148.755249 
	C306.480560,145.172089 303.158600,141.532532 299.185608,138.861206 
	C297.084869,137.448746 293.864685,137.439270 291.125122,137.306366 
	C287.831177,137.146576 284.510925,137.529160 280.491394,137.444992 
z"/>
<path fill="#676A62" opacity="1.000000" stroke="none" 
	d="
M276.153839,326.932465 
	C276.453705,327.013550 276.691345,327.182251 277.100769,327.889648 
	C277.662170,328.529022 277.989624,328.717285 278.317108,328.905518 
	C280.266266,329.247955 282.206177,329.818909 284.165985,329.898132 
	C308.175964,330.868988 332.187744,331.799347 356.201965,332.658966 
	C361.120361,332.834991 365.778503,331.937012 369.622620,327.424072 
	C373.971680,321.241394 377.912933,315.526031 382.103729,310.072144 
	C386.025879,312.245972 388.668701,314.533966 388.309845,319.421112 
	C388.155121,321.528351 390.011536,323.783234 390.954285,325.971069 
	C390.636688,328.903046 390.173553,331.827698 390.026245,334.768219 
	C389.323059,348.802582 389.146271,362.880066 387.913971,376.865723 
	C386.979889,387.466766 384.842133,397.970154 383.055878,408.485718 
	C380.472595,423.693451 378.373871,439.025238 374.864594,454.022430 
	C371.209778,469.641449 369.158142,485.341125 367.814758,501.285706 
	C366.770966,513.674316 364.069305,525.923340 361.688049,538.687561 
	C352.509460,543.406006 343.335938,544.135864 333.867279,542.329651 
	C330.492432,539.457336 325.533386,537.755493 326.040192,531.984314 
	C326.284424,529.202881 326.792084,526.443542 327.009766,523.660889 
	C328.038666,510.509644 329.455841,497.368256 329.882141,484.195770 
	C330.374237,468.989746 328.900543,453.659821 330.237000,438.556854 
	C331.856110,420.259125 326.472076,403.114990 324.265991,385.455505 
	C323.804596,381.762299 323.419159,378.059662 322.391174,374.289154 
	C317.904877,380.619568 316.077850,387.646515 315.728119,395.899567 
	C315.120209,397.681427 314.794098,398.779053 314.186218,400.824951 
	C311.892639,393.459656 309.967651,387.130798 307.949677,380.831757 
	C304.743652,370.823914 301.444946,360.709106 292.760437,353.956848 
	C284.691010,347.682800 281.589142,338.117798 275.928070,330.268616 
	C275.302734,329.401581 275.276520,328.102478 275.268127,326.992004 
	C275.760498,326.964325 275.957153,326.948395 276.153839,326.932465 
z"/>
<path fill="#8A8F89" opacity="1.000000" stroke="none" 
	d="
M274.972412,327.003754 
	C275.276520,328.102478 275.302734,329.401581 275.928070,330.268616 
	C281.589142,338.117798 284.691010,347.682800 292.760437,353.956848 
	C301.444946,360.709106 304.743652,370.823914 307.949677,380.831757 
	C309.967651,387.130798 311.892639,393.459656 314.186218,400.824951 
	C314.794098,398.779053 315.120209,397.681427 315.649597,396.340027 
	C315.900818,414.734528 316.877228,433.433258 315.670227,451.989960 
	C314.865631,464.360413 317.693787,475.973297 318.951660,487.920715 
	C319.638519,494.444885 320.560150,500.955139 320.951111,507.497070 
	C321.523346,517.072388 322.114105,526.677734 321.939606,536.256531 
	C321.802917,543.759460 320.517090,551.241577 318.970276,558.883362 
	C314.469604,558.543457 310.346313,558.903259 307.089752,557.393494 
	C299.273529,553.769836 292.283813,552.904419 286.006256,559.986877 
	C281.717377,545.625305 280.806183,530.804443 279.946411,515.966553 
	C279.394348,506.438171 278.858856,496.900818 277.931671,487.404968 
	C277.282135,480.752289 275.900757,474.174255 275.000305,467.541962 
	C274.207520,461.702209 273.444824,455.847656 272.989166,449.974792 
	C271.577881,431.785461 270.961853,413.507599 268.802338,395.411469 
	C267.008392,380.378845 267.331726,365.005554 262.264709,350.364716 
	C261.082306,346.948212 262.060272,342.784088 262.490112,338.501465 
	C265.051514,338.577362 267.167053,339.115692 269.282562,339.654053 
	C269.606171,339.339294 269.929749,339.024536 270.253326,338.709778 
	C268.465668,336.058228 266.678009,333.406708 265.226227,331.253387 
	C267.218201,328.750305 269.104858,326.379517 270.995544,324.004578 
	C270.999603,324.000458 271.003906,323.993195 271.351257,323.982727 
	C272.161926,323.967072 272.625244,323.961884 273.088531,323.956726 
	C273.088531,323.956726 273.025452,323.986786 273.066895,324.271881 
	C273.729706,325.372559 274.351074,326.188171 274.972412,327.003754 
z"/>
<path fill="#C5BBB9" opacity="1.000000" stroke="none" 
	d="
M292.216583,116.217758 
	C291.629089,115.548698 291.041565,114.879639 290.153259,114.058853 
	C287.209900,108.767677 284.554749,103.634575 281.937500,98.482224 
	C281.522308,97.664871 281.277893,96.760773 280.868469,95.289917 
	C280.551758,94.464371 280.321106,94.245667 280.090424,94.026962 
	C280.090424,94.026962 279.924774,93.635406 279.998840,93.043976 
	C279.408936,91.308426 278.744965,90.164322 278.080994,89.020218 
	C278.025055,87.939255 277.969116,86.858292 278.370361,85.362885 
	C279.424255,82.782204 280.660187,80.553253 280.455322,78.465645 
	C280.201202,75.875076 278.754486,73.401520 277.822906,70.877419 
	C277.834229,70.521675 277.983887,70.239243 278.875427,69.971855 
	C281.621368,65.217369 283.763824,60.521152 285.906250,55.824936 
	C285.906250,55.824936 285.906281,55.928051 286.222870,55.909309 
	C287.323151,54.197254 288.106812,52.503941 288.890503,50.810627 
	C288.890503,50.810627 288.896790,50.908260 289.217896,50.942627 
	C290.006805,50.232655 290.474670,49.488312 290.942505,48.743969 
	C291.367859,48.186340 291.793213,47.628716 292.858032,47.063736 
	C300.904968,42.146748 308.548920,40.463329 317.317322,43.739231 
	C321.634705,45.352219 326.587708,45.263920 331.253082,45.945492 
	C331.811859,46.370083 332.370605,46.794670 332.983643,47.847023 
	C333.759155,48.948200 334.480347,49.421608 335.201569,49.895020 
	C335.201569,49.895020 335.106018,49.903526 335.009308,50.240631 
	C336.579010,53.376881 338.245422,56.176029 339.911804,58.975182 
	C339.911804,58.975185 340.078278,59.364014 340.031555,59.921894 
	C340.401337,60.989914 340.817841,61.500053 341.234314,62.010185 
	C341.234344,62.010178 341.031830,61.988689 341.111206,62.146809 
	C341.432861,62.527786 341.675140,62.750641 341.917450,62.973495 
	C341.917450,62.973499 342.085632,63.353508 341.982330,63.994576 
	C342.282806,67.719345 342.301514,70.927513 343.242249,73.837646 
	C343.763428,75.450050 345.826477,76.564064 347.194519,77.902718 
	C347.194519,77.902718 347.094299,77.910545 347.021973,78.247726 
	C346.989502,80.463898 346.682190,82.437927 347.163513,84.196060 
	C347.679504,86.080704 348.937500,87.762215 349.871643,89.532379 
	C349.871643,89.532379 349.796844,89.793785 349.326202,89.628815 
	C348.265045,90.038574 347.674561,90.613304 347.084076,91.188049 
	C347.084076,91.188057 347.082703,91.069099 346.763367,91.115173 
	C346.001617,91.955513 345.209747,92.734688 345.174683,93.546539 
	C344.980682,98.039032 344.970978,102.539467 344.550781,107.096809 
	C342.703644,107.850296 341.203857,108.544151 339.357666,109.194016 
	C337.994019,110.229164 336.758606,111.175247 336.003174,112.414009 
	C334.203918,115.364395 332.631470,118.453110 330.967377,121.485916 
	C325.036621,132.294418 302.617279,134.174744 295.983521,120.189194 
	C295.240295,118.622330 293.496399,117.530106 292.216583,116.217758 
M339.622375,94.469582 
	C339.686646,91.452316 342.167053,87.398392 337.465424,86.166954 
	C334.670380,85.434875 334.092010,84.358719 333.944458,81.881935 
	C333.828217,79.930199 333.051361,78.016983 332.560608,76.088524 
	C330.724701,68.874062 328.949249,61.643040 326.990112,54.462151 
	C326.632141,53.150070 325.776276,51.714729 324.717926,50.893166 
	C314.770966,43.171673 297.437622,46.126545 291.532990,57.075012 
	C286.238953,66.891296 286.281616,77.794067 287.486450,88.637505 
	C287.609375,89.743706 288.133789,90.998901 288.880646,91.807335 
	C291.556274,94.703514 292.281067,98.011002 292.135223,101.875427 
	C292.078247,103.386078 293.561005,104.954826 294.342438,106.497108 
	C295.830597,105.726776 297.383575,105.058136 298.790894,104.160995 
	C300.647705,102.977333 302.279114,100.767189 304.206299,100.514343 
	C307.649353,100.062630 311.256226,101.049301 314.767059,100.876022 
	C319.097443,100.662285 321.980713,102.711678 324.666290,105.685257 
	C325.728607,106.861496 327.257629,107.616234 328.574127,108.562897 
	C329.413879,106.872604 330.769104,105.250435 331.003113,103.480072 
	C331.956268,96.268707 332.296326,95.765327 339.622375,94.469582 
z"/>
<path fill="#44403A" opacity="1.000000" stroke="none" 
	d="
M240.059814,319.092773 
	C240.059814,319.092773 239.918152,318.671692 240.167297,318.182129 
	C240.983002,315.794586 241.685654,313.925018 242.089508,311.993011 
	C243.130310,307.014069 244.038925,302.007477 245.285034,296.960754 
	C246.004303,296.561829 246.438858,296.214111 246.934357,295.887421 
	C246.995270,295.908447 246.885086,295.840332 247.247040,295.931519 
	C255.143921,299.249847 255.768570,302.025330 250.378494,308.252563 
	C247.765900,311.270966 247.131546,314.549377 249.149841,318.149811 
	C247.783676,324.390289 245.981644,330.572601 245.139160,336.882996 
	C243.194107,351.452057 241.614578,366.072723 240.072083,380.691986 
	C238.268188,397.788818 236.768234,414.917877 234.934372,432.011292 
	C233.506485,445.320831 231.701904,458.589600 230.191406,471.890839 
	C229.053162,481.914276 228.103683,491.959320 227.091858,501.996918 
	C226.063904,512.194458 224.734894,522.375671 224.143417,532.599121 
	C223.573593,542.448669 223.870148,552.346252 223.524902,562.213562 
	C223.481827,563.445129 221.858826,565.621399 220.938995,565.636780 
	C218.056549,565.685181 215.160263,564.909363 212.269348,564.452820 
	C212.707840,562.464783 213.212234,560.488586 213.573761,558.486633 
	C215.402679,548.358459 217.435776,538.258972 218.932693,528.081116 
	C220.486206,517.518616 221.591110,506.886902 222.735596,496.268555 
	C223.618195,488.079742 224.177383,479.856415 225.030014,471.664001 
	C225.846130,463.822479 226.913086,456.007294 227.763000,448.168976 
	C228.580795,440.626740 229.208725,433.063995 230.015396,425.520447 
	C231.240829,414.060822 232.598190,402.615265 233.806992,391.153961 
	C234.929764,380.508148 235.891739,369.845459 236.996796,359.197693 
	C238.288467,346.751831 239.658401,334.314026 240.962616,321.155762 
	C240.640518,319.990143 240.350174,319.541443 240.059814,319.092773 
z"/>
<path fill="#C78876" opacity="1.000000" stroke="none" 
	d="
M230.638458,214.090118 
	C232.183090,214.751801 233.377197,215.599472 234.534851,216.997009 
	C235.513672,226.781616 237.977325,231.568542 244.137192,233.745789 
	C250.959488,236.157181 251.806366,238.940353 250.966812,245.955338 
	C250.659927,248.519318 252.223328,251.307129 252.933502,253.992828 
	C252.622986,258.210510 252.343369,262.430756 251.995285,266.645325 
	C251.348694,274.473938 253.886276,281.579590 256.194733,288.914886 
	C257.659698,293.569916 256.806793,298.954376 256.693176,304.196472 
	C255.457062,300.414459 254.745544,296.376404 253.514069,292.503662 
	C252.534714,289.423828 250.492859,289.173370 248.593002,291.879822 
	C247.784286,293.031921 247.440277,294.510254 246.885086,295.840332 
	C246.885086,295.840332 246.995270,295.908447 246.617355,295.901184 
	C245.830612,296.005035 245.421783,296.116089 244.605011,296.184814 
	C242.253098,295.826141 240.317764,295.321564 238.363373,295.231720 
	C233.951111,295.028839 229.529449,295.030884 225.111603,294.949585 
	C226.377426,291.029144 227.119354,286.832886 229.010315,283.241608 
	C234.070251,273.631592 233.259186,264.111664 230.647141,253.998398 
	C227.266968,240.911102 226.155334,227.552063 230.638458,214.090118 
z"/>
<path fill="#221B25" opacity="1.000000" stroke="none" 
	d="
M285.825745,560.271484 
	C292.283813,552.904419 299.273529,553.769836 307.089752,557.393494 
	C310.346313,558.903259 314.469604,558.543457 318.643616,559.151611 
	C324.076813,565.697205 324.276489,573.109497 323.907898,581.050415 
	C318.046753,581.710022 312.563690,582.517334 307.051117,582.905518 
	C297.278473,583.593689 287.492310,584.268799 277.702637,584.446594 
	C273.872467,584.516174 271.198822,582.019165 271.017639,577.787048 
	C270.681580,569.936584 271.722717,568.731628 278.617279,565.836548 
	C281.237091,564.736450 283.318451,562.354004 285.825745,560.271484 
z"/>
<path fill="#221C25" opacity="1.000000" stroke="none" 
	d="
M333.889526,542.769165 
	C343.335938,544.135864 352.509460,543.406006 361.650848,539.090210 
	C365.210571,548.413452 368.526062,557.745178 371.477325,567.190613 
	C372.222900,569.576843 371.805237,572.326538 371.950531,575.537170 
	C361.380371,574.954651 351.512329,574.544922 341.668579,573.809814 
	C336.983246,573.459961 335.784943,570.345276 337.704132,565.536072 
	C338.293793,564.058472 338.706299,561.594482 337.918152,560.634949 
	C333.621246,555.403687 333.824432,549.332458 333.889526,542.769165 
z"/>
<path fill="#906359" opacity="1.000000" stroke="none" 
	d="
M391.010010,325.558044 
	C390.011536,323.783234 388.155121,321.528351 388.309845,319.421112 
	C388.668701,314.533966 386.025879,312.245972 382.119446,309.675232 
	C378.513672,296.932220 379.212616,284.527863 379.339661,271.922974 
	C379.441895,258.828705 379.198303,246.007080 379.164978,232.904343 
	C383.910431,230.113937 388.445618,227.604645 392.980804,225.095352 
	C396.086639,224.479858 399.192474,223.864365 402.725403,223.250473 
	C403.425873,230.215668 403.699219,237.179245 403.570618,244.525604 
	C399.920502,241.895950 396.672333,238.883530 393.339478,235.792557 
	C388.280487,244.308838 382.904205,296.685028 385.983704,306.740356 
	C386.890686,305.488403 387.645844,304.500732 388.343384,303.473907 
	C391.854828,298.304688 395.351288,293.125275 398.852966,287.949432 
	C398.230103,292.482574 397.355988,296.999084 397.053833,301.553497 
	C396.741821,306.256287 397.448364,310.726166 393.456970,314.866791 
	C391.361176,317.040955 391.781586,321.640656 391.010010,325.558044 
z"/>
<path fill="#8999AD" opacity="1.000000" stroke="none" 
	d="
M236.028702,217.050797 
	C239.274658,213.973907 242.516708,210.892883 245.767731,207.821365 
	C248.550461,205.192291 249.302078,202.108521 248.631790,198.300125 
	C247.021973,189.153717 245.162567,179.997131 244.446381,170.763779 
	C243.813797,162.608322 246.325928,154.937485 252.410507,148.546738 
	C252.410507,155.382935 252.467987,162.219742 252.395111,169.055161 
	C252.314285,176.634735 252.014175,184.213440 252.043488,191.791611 
	C252.050034,193.485718 253.030472,195.176056 253.384872,196.303116 
	C259.245270,194.796066 264.504211,192.918106 269.916840,192.202057 
	C275.156799,191.508850 275.856262,192.805786 274.172943,197.860153 
	C272.701813,202.277344 271.315674,206.760544 269.362671,210.968918 
	C267.406982,215.183014 265.917175,219.187408 267.601990,223.883286 
	C267.861725,224.607208 266.530426,225.901993 265.581757,227.004272 
	C265.228577,221.313095 265.228577,215.550430 265.228577,209.787766 
	C264.776794,209.527939 264.325012,209.268097 263.873260,209.008270 
	C260.975494,212.800262 258.077759,216.592255 254.586304,220.718048 
	C251.859543,221.026245 249.726532,220.989822 247.593399,220.977310 
	C243.300613,220.952164 238.994583,220.978821 236.028702,217.050797 
z"/>
<path fill="#C68674" opacity="1.000000" stroke="none" 
	d="
M398.914642,287.544128 
	C395.351288,293.125275 391.854828,298.304688 388.343384,303.473907 
	C387.645844,304.500732 386.890686,305.488403 385.983704,306.740356 
	C382.904205,296.685028 388.280487,244.308838 393.339478,235.792557 
	C396.672333,238.883530 399.920502,241.895950 403.502808,244.981842 
	C405.282410,259.437225 402.476776,273.328156 398.914642,287.544128 
z"/>
<path fill="#8B99AC" opacity="1.000000" stroke="none" 
	d="
M339.704071,109.238014 
	C341.203857,108.544151 342.703644,107.850296 344.750061,107.324135 
	C345.838165,107.646729 346.379639,107.801620 346.921112,107.956512 
	C348.415436,110.583244 349.909760,113.209984 351.816010,116.281334 
	C353.104645,117.225517 353.981384,117.725090 354.858093,118.224655 
	C353.526276,121.750664 352.264679,125.305214 350.846100,128.795959 
	C348.725769,134.013596 346.478485,139.179535 344.334076,144.387589 
	C344.091583,144.976471 344.049774,145.705215 344.107849,146.351776 
	C344.676666,152.683456 343.916107,153.959335 337.841888,155.757675 
	C329.807800,158.136307 321.733673,160.379684 312.783295,162.936432 
	C315.980133,159.840561 318.553802,156.397812 321.951324,154.271500 
	C327.637054,150.713089 333.848053,147.993683 339.839996,144.925064 
	C340.416809,144.629669 341.379120,144.495071 341.534943,144.060730 
	C343.174103,139.490845 344.685516,134.875107 345.713409,129.968124 
	C340.420532,141.032471 330.322571,146.278946 320.231750,151.481598 
	C322.948486,148.368805 325.589508,145.089355 328.948120,142.921722 
	C342.701660,134.045059 346.631378,122.211960 339.704071,109.238014 
z"/>
<path fill="#906359" opacity="1.000000" stroke="none" 
	d="
M235.754639,217.031021 
	C238.994583,220.978821 243.300613,220.952164 247.593399,220.977310 
	C249.726532,220.989822 251.859543,221.026245 254.450638,221.042267 
	C254.490707,231.887787 254.072739,242.742874 253.294128,253.795410 
	C252.223328,251.307129 250.659927,248.519318 250.966812,245.955338 
	C251.806366,238.940353 250.959488,236.157181 244.137192,233.745789 
	C237.977325,231.568542 235.513672,226.781616 234.714966,217.267715 
	C235.114532,216.996124 235.297546,217.003677 235.754639,217.031021 
z"/>
<path fill="#8F635A" opacity="1.000000" stroke="none" 
	d="
M225.039108,295.214783 
	C229.529449,295.030884 233.951111,295.028839 238.363373,295.231720 
	C240.317764,295.321564 242.253098,295.826141 244.601593,296.380005 
	C245.006119,296.617523 245.000351,297.011932 245.000351,297.011932 
	C244.038925,302.007477 243.130310,307.014069 242.089508,311.993011 
	C241.685654,313.925018 240.983002,315.794586 240.134140,317.962524 
	C237.542572,314.948730 235.164246,311.710907 232.943085,308.368622 
	C230.628876,304.886414 228.466278,301.303375 226.029755,297.204590 
	C225.559494,296.438385 225.296890,296.232025 225.034286,296.025696 
	C225.011719,295.843781 224.989166,295.661896 225.039108,295.214783 
z"/>
<path fill="#6E716B" opacity="1.000000" stroke="none" 
	d="
M273.090057,323.555969 
	C272.625244,323.961884 272.161926,323.967072 271.096527,323.742615 
	C269.014709,323.365448 267.535004,323.217987 266.055298,323.070496 
	C266.053619,323.521271 266.051910,323.972046 266.050232,324.422821 
	C267.697327,324.284790 269.344421,324.146759 270.991516,324.008728 
	C269.104858,326.379517 267.218201,328.750305 265.226227,331.253387 
	C266.678009,333.406708 268.465668,336.058228 270.253326,338.709778 
	C269.929749,339.024536 269.606171,339.339294 269.282562,339.654053 
	C267.167053,339.115692 265.051514,338.577362 262.560120,338.045044 
	C260.822784,333.589874 259.461334,329.128632 258.120209,324.276459 
	C261.845612,322.947968 265.516235,321.786560 269.276520,321.207764 
	C270.421204,321.031586 271.812988,322.461090 273.090057,323.555969 
z"/>
<path fill="#8B6258" opacity="1.000000" stroke="none" 
	d="
M247.247040,295.931519 
	C247.440277,294.510254 247.784286,293.031921 248.593002,291.879822 
	C250.492859,289.173370 252.534714,289.423828 253.514069,292.503662 
	C254.745544,296.376404 255.457062,300.414459 256.651764,304.657959 
	C256.949219,305.123779 256.987823,305.312805 256.725830,305.965729 
	C256.303131,307.005585 256.181061,307.581604 256.058960,308.157593 
	C253.956253,311.371216 251.853561,314.584869 249.450348,317.974152 
	C247.131546,314.549377 247.765900,311.270966 250.378494,308.252563 
	C255.768570,302.025330 255.143921,299.249847 247.247040,295.931519 
z"/>
<path fill="#F4F7FB" opacity="1.000000" stroke="none" 
	d="
M287.581360,114.962357 
	C282.539795,117.237946 276.961609,119.305389 271.677887,121.959076 
	C264.929260,125.348511 258.418213,129.211121 251.475067,132.931885 
	C252.963181,130.944595 254.418747,128.286499 256.661804,126.951599 
	C266.144379,121.308281 276.392334,117.430992 287.581360,114.962357 
z"/>
<path fill="#F8F6F6" opacity="1.000000" stroke="none" 
	d="
M331.035767,45.610085 
	C326.587708,45.263920 321.634705,45.352219 317.317322,43.739231 
	C308.548920,40.463329 300.904968,42.146748 293.121307,46.999409 
	C294.551758,45.293522 296.140381,42.654198 298.209808,42.198544 
	C302.744904,41.199966 307.608215,40.595352 312.182526,41.137444 
	C318.469635,41.882511 324.613281,43.837879 331.035767,45.610085 
z"/>
<path fill="#F6F4F3" opacity="1.000000" stroke="none" 
	d="
M350.137146,89.301453 
	C348.937500,87.762215 347.679504,86.080704 347.163513,84.196060 
	C346.682190,82.437927 346.989502,80.463898 347.024933,78.197556 
	C351.951569,81.011826 352.857483,84.100723 350.137146,89.301453 
z"/>
<path fill="#F4F7FB" opacity="1.000000" stroke="none" 
	d="
M355.302185,118.148926 
	C353.981384,117.725090 353.104645,117.225517 352.142639,116.424973 
	C357.934326,115.563828 363.638245,115.929901 368.826843,119.630676 
	C364.491333,119.364471 360.118805,118.718842 355.302185,118.148926 
z"/>
<path fill="#F6F4F3" opacity="1.000000" stroke="none" 
	d="
M277.485046,71.100731 
	C278.754486,73.401520 280.201202,75.875076 280.455322,78.465645 
	C280.660187,80.553253 279.424255,82.782204 278.455353,84.964218 
	C277.771149,80.428009 277.459167,75.876030 277.485046,71.100731 
z"/>
<path fill="#F6F4F3" opacity="1.000000" stroke="none" 
	d="
M346.961426,107.493195 
	C346.379639,107.801620 345.838165,107.646729 345.097412,107.264511 
	C344.970978,102.539467 344.980682,98.039032 345.174683,93.546539 
	C345.209747,92.734688 346.001617,91.955513 346.822632,91.120148 
	C347.134735,96.395981 347.068237,101.712921 346.961426,107.493195 
z"/>
<path fill="#F8F6F6" opacity="1.000000" stroke="none" 
	d="
M285.585876,55.994984 
	C283.763824,60.521152 281.621368,65.217369 279.118896,69.931366 
	C280.927704,65.354439 283.096588,60.759735 285.585876,55.994984 
z"/>
<path fill="#F6F4F3" opacity="1.000000" stroke="none" 
	d="
M347.110748,77.532578 
	C345.826477,76.564064 343.763428,75.450050 343.242249,73.837646 
	C342.301514,70.927513 342.282806,67.719345 341.967163,64.201797 
	C343.712524,68.232780 345.369751,72.697601 347.110748,77.532578 
z"/>
<path fill="#F6F4F3" opacity="1.000000" stroke="none" 
	d="
M339.960602,58.605934 
	C338.245422,56.176029 336.579010,53.376881 335.012634,50.192787 
	C336.744934,52.617455 338.377167,55.427071 339.960602,58.605934 
z"/>
<path fill="#F8F6F6" opacity="1.000000" stroke="none" 
	d="
M288.583771,50.981567 
	C288.106812,52.503941 287.323151,54.197254 286.171692,55.903168 
	C286.628265,54.328014 287.452637,52.740261 288.583771,50.981567 
z"/>
<path fill="#F6F4F3" opacity="1.000000" stroke="none" 
	d="
M278.035156,89.375305 
	C278.744965,90.164322 279.408936,91.308426 280.013275,92.831886 
	C279.298859,92.050957 278.644104,90.890678 278.035156,89.375305 
z"/>
<path fill="#F6F4F3" opacity="1.000000" stroke="none" 
	d="
M347.372131,91.110367 
	C347.674561,90.613304 348.265045,90.038574 349.192017,89.650726 
	C348.905731,90.235977 348.282959,90.634338 347.372131,91.110367 
z"/>
<path fill="#F6F4F3" opacity="1.000000" stroke="none" 
	d="
M335.116333,49.549679 
	C334.480347,49.421608 333.759155,48.948200 333.047913,48.110641 
	C333.715668,48.232445 334.373383,48.718391 335.116333,49.549679 
z"/>
<path fill="#F8F6F6" opacity="1.000000" stroke="none" 
	d="
M290.604797,48.856316 
	C290.474670,49.488312 290.006805,50.232655 289.169128,50.938473 
	C289.288544,50.256184 289.777802,49.612419 290.604797,48.856316 
z"/>
<path fill="#C78876" opacity="1.000000" stroke="none" 
	d="
M256.363281,308.039490 
	C256.181061,307.581604 256.303131,307.005585 256.667542,306.249237 
	C256.829102,306.686401 256.748352,307.303894 256.363281,308.039490 
z"/>
<path fill="#8F635A" opacity="1.000000" stroke="none" 
	d="
M240.042816,319.390717 
	C240.350174,319.541443 240.640518,319.990143 240.945435,320.722900 
	C240.648605,320.567535 240.337219,320.128082 240.042816,319.390717 
z"/>
<path fill="#F6F4F3" opacity="1.000000" stroke="none" 
	d="
M341.129211,61.685989 
	C340.817841,61.500053 340.401337,60.989914 340.016907,60.132862 
	C340.374023,60.311230 340.699066,60.836510 341.129211,61.685989 
z"/>
<path fill="#C78876" opacity="1.000000" stroke="none" 
	d="
M225.030441,296.305267 
	C225.296890,296.232025 225.559494,296.438385 225.880661,296.902985 
	C225.635010,296.969086 225.330811,296.776978 225.030441,296.305267 
z"/>
<path fill="#F6F4F3" opacity="1.000000" stroke="none" 
	d="
M341.928741,62.697830 
	C341.675140,62.750641 341.432861,62.527786 341.123596,62.045742 
	C341.351135,61.998428 341.645569,62.210297 341.928741,62.697830 
z"/>
<path fill="#F6F4F3" opacity="1.000000" stroke="none" 
	d="
M280.076355,94.303246 
	C280.321106,94.245667 280.551758,94.464371 280.877258,94.920525 
	C280.668823,94.965157 280.365570,94.772339 280.076355,94.303246 
z"/>
<path fill="#8897AB" opacity="1.000000" stroke="none" 
	d="
M378.993805,272.195557 
	C379.212616,284.527863 378.513672,296.932220 381.869873,309.413788 
	C377.912933,315.526031 373.971680,321.241394 369.736145,327.082214 
	C367.223755,326.092865 365.017059,324.954681 362.785522,323.867340 
	C354.646362,319.901428 350.012451,314.017700 349.831482,304.363312 
	C349.729187,298.905945 348.146118,293.152985 345.877686,288.145844 
	C343.344757,282.554840 343.355804,277.525940 345.970886,272.385986 
	C349.809418,264.841339 353.626740,257.251526 358.077820,250.068039 
	C360.158386,246.710358 363.294342,243.549973 366.696045,241.594650 
	C370.170868,239.597305 370.313232,237.737869 368.698120,234.876968 
	C367.802399,233.290329 366.938507,231.474564 365.560333,230.408218 
	C359.732941,225.899429 358.061554,218.622406 353.903015,212.662796 
	C354.056305,212.583557 354.542938,212.198944 355.089966,212.069443 
	C361.952728,210.444885 363.076172,208.643814 361.206085,201.899094 
	C360.273621,198.536102 358.936859,195.263458 358.280334,191.854172 
	C357.904999,189.905090 358.528503,187.763641 358.740295,185.259552 
	C366.399475,186.480667 369.231964,193.030624 375.178894,195.840820 
	C373.766144,193.409744 372.528809,190.853790 370.904785,188.573181 
	C367.340546,183.568008 368.358063,179.746536 374.542419,176.462631 
	C374.337402,179.428543 374.139862,182.286270 373.851685,186.455582 
	C381.231049,180.704269 380.207672,173.215149 381.072113,166.803497 
	C381.969513,160.147781 381.272034,153.277023 382.157440,146.287857 
	C383.375641,153.004776 384.593842,159.721695 385.812042,166.438614 
	C386.208862,166.546890 386.605713,166.655167 387.002563,166.763443 
	C388.526459,162.636108 390.050323,158.508789 391.574219,154.381454 
	C392.035339,154.397217 392.496490,154.412964 392.957642,154.428711 
	C392.957642,177.680359 392.957642,200.932007 392.969238,224.639496 
	C388.445618,227.604645 383.910431,230.113937 378.823883,232.724854 
	C376.100128,232.876877 375.822205,233.331253 375.990082,235.994247 
	C376.676147,246.877869 377.304443,257.765228 378.027710,268.646301 
	C378.107422,269.845490 378.660339,271.013245 378.993805,272.195557 
z"/>
<path fill="#8F635A" opacity="1.000000" stroke="none" 
	d="
M339.357666,109.194023 
	C346.631378,122.211960 342.701660,134.045059 328.948120,142.921722 
	C325.589508,145.089355 322.948486,148.368805 319.870361,151.462997 
	C317.476074,153.206573 315.886536,153.117142 314.044250,150.596939 
	C311.327240,146.880142 308.287109,143.221405 304.739166,140.329849 
	C298.652374,135.369141 294.953857,129.209366 293.102722,121.095856 
	C292.960449,120.324776 292.912964,120.163490 292.865448,120.002205 
	C292.702820,118.946236 292.540161,117.890266 292.297058,116.526031 
	C293.496399,117.530106 295.240295,118.622330 295.983521,120.189194 
	C302.617279,134.174744 325.036621,132.294418 330.967377,121.485916 
	C332.631470,118.453110 334.203918,115.364395 336.003174,112.414009 
	C336.758606,111.175247 337.994019,110.229164 339.357666,109.194023 
z"/>
<path fill="#8B9BAF" opacity="1.000000" stroke="none" 
	d="
M280.846741,137.560959 
	C284.510925,137.529160 287.831177,137.146576 291.125122,137.306366 
	C293.864685,137.439270 297.084869,137.448746 299.185608,138.861206 
	C303.158600,141.532532 306.480560,145.172089 310.456940,148.755249 
	C303.810150,151.366745 299.087158,151.654266 295.601196,145.379211 
	C294.738708,143.826660 291.385193,143.526047 289.104126,142.926117 
	C286.101105,142.136292 282.872894,142.003738 280.028900,140.868576 
	C277.568359,139.886444 277.828674,138.865082 280.846741,137.560959 
z"/>
<path fill="#6E716B" opacity="1.000000" stroke="none" 
	d="
M275.268127,326.992004 
	C274.351074,326.188171 273.729706,325.372559 273.071014,324.237183 
	C274.003082,324.716217 274.972473,325.515076 276.047852,326.623169 
	C275.957153,326.948395 275.760498,326.964325 275.268127,326.992004 
z"/>
<path fill="#C5BBB9" opacity="1.000000" stroke="none" 
	d="
M292.756165,120.115257 
	C292.912964,120.163490 292.960449,120.324776 292.992004,120.737595 
	C292.645081,120.821411 292.535370,120.567802 292.756165,120.115257 
z"/>
<path fill="#6E716B" opacity="1.000000" stroke="none" 
	d="
M278.150848,328.676086 
	C277.989624,328.717285 277.662170,328.529022 277.187134,328.094421 
	C277.354553,328.047638 277.669586,328.247162 278.150848,328.676086 
z"/>
<path fill="#C88876" opacity="1.000000" stroke="none" 
	d="
M339.386719,94.778763 
	C332.296326,95.765327 331.956268,96.268707 331.003113,103.480072 
	C330.769104,105.250435 329.413879,106.872604 328.574127,108.562897 
	C327.257629,107.616234 325.728607,106.861496 324.666290,105.685257 
	C321.980713,102.711678 319.097443,100.662285 314.767059,100.876022 
	C311.256226,101.049301 307.649353,100.062630 304.206299,100.514343 
	C302.279114,100.767189 300.647705,102.977333 298.790894,104.160995 
	C297.383575,105.058136 295.830597,105.726776 294.342438,106.497116 
	C293.561005,104.954826 292.078247,103.386078 292.135223,101.875427 
	C292.281067,98.011002 291.556274,94.703514 288.880646,91.807335 
	C288.133789,90.998901 287.609375,89.743706 287.486450,88.637505 
	C286.281616,77.794067 286.238953,66.891296 291.532990,57.075012 
	C297.437622,46.126545 314.770966,43.171673 324.717926,50.893166 
	C325.776276,51.714729 326.632141,53.150070 326.990112,54.462151 
	C328.949249,61.643040 330.724701,68.874062 332.560608,76.088524 
	C333.051361,78.016983 333.828217,79.930199 333.944458,81.881935 
	C334.092010,84.358719 334.670380,85.434875 337.465424,86.166954 
	C342.167053,87.398392 339.686646,91.452316 339.386719,94.778763 
z"/>
<path fill="#8B6258" opacity="1.000000" stroke="none" 
	d="
M245.285034,296.960754 
	C245.000351,297.011932 245.006119,296.617523 245.009537,296.422333 
	C245.421783,296.116089 245.830612,296.005035 246.556427,295.880188 
	C246.438858,296.214111 246.004303,296.561829 245.285034,296.960754 
z"/>
<path fill="#000000" opacity="1.000000" stroke="none" 
	d="
M379.339661,271.922974 
	C378.660339,271.013245 378.107422,269.845490 378.027710,268.646301 
	C377.304443,257.765228 376.676147,246.877869 375.990082,235.994247 
	C375.822205,233.331253 376.100128,232.876877 378.613617,233.005951 
	C379.198303,246.007080 379.441895,258.828705 379.339661,271.922974 
z"/>
<path fill="#8A8F89" opacity="1.000000" stroke="none" 
	d="
M270.995544,324.004608 
	C269.344421,324.146759 267.697327,324.284790 266.050232,324.422821 
	C266.051910,323.972046 266.053619,323.521271 266.055298,323.070496 
	C267.535004,323.217987 269.014709,323.365448 270.749146,323.753052 
	C271.003906,323.993195 270.999603,324.000458 270.995544,324.004608 
z"/>
</svg>